<?xml version="1.0" encoding="UTF-8" standalone="no"?>
<!DOCTYPE svg PUBLIC "-//W3C//DTD SVG 1.1//EN"
 "http://www.w3.org/Graphics/SVG/1.1/DTD/svg11.dtd">
<!-- Generated by graphviz version 2.40.1 (20161225.0304)
 -->
<!-- Title: dependencies Pages: 1 -->
<svg width="2064pt" height="436pt"
 viewBox="0.00 0.00 2064.00 436.00" xmlns="http://www.w3.org/2000/svg" xmlns:xlink="http://www.w3.org/1999/xlink">
<g id="graph0" class="graph" transform="scale(1 1) rotate(0) translate(4 432)">
<title>dependencies</title>
<polygon fill="#ffffff" stroke="transparent" points="-4,4 -4,-432 2060,-432 2060,4 -4,4"/>
<text text-anchor="start" x="1007.0091" y="-42.4" font-family="sans-serif" font-weight="bold" font-size="14.00" fill="#000000">Legend</text>
<polygon fill="#ffffb3" stroke="transparent" points="794,-10 794,-30 814,-30 814,-10 794,-10"/>
<text text-anchor="start" x="817.629" y="-15.4" font-family="sans-serif" font-size="14.00" fill="#000000"> &#160;Declarations</text>
<polygon fill="#8dd3c7" stroke="transparent" points="907,-10 907,-30 927,-30 927,-10 907,-10"/>
<text text-anchor="start" x="930.7251" y="-15.4" font-family="sans-serif" font-size="14.00" fill="#000000"> &#160;Module</text>
<polygon fill="#80b1d3" stroke="transparent" points="993,-10 993,-30 1013,-30 1013,-10 993,-10"/>
<text text-anchor="start" x="1016.7812" y="-15.4" font-family="sans-serif" font-size="14.00" fill="#000000"> &#160;Bootstrap</text>
<polygon fill="#fdb462" stroke="transparent" points="1090,-10 1090,-30 1110,-30 1110,-10 1090,-10"/>
<text text-anchor="start" x="1113.6732" y="-15.4" font-family="sans-serif" font-size="14.00" fill="#000000"> &#160;Providers</text>
<polygon fill="#fb8072" stroke="transparent" points="1186,-10 1186,-30 1206,-30 1206,-10 1186,-10"/>
<text text-anchor="start" x="1209.7258" y="-15.4" font-family="sans-serif" font-size="14.00" fill="#000000"> &#160;Exports</text>
<g id="clust1" class="cluster">
<title>cluster_AboutModule</title>
<polygon fill="none" stroke="#000000" stroke-dasharray="1,5" points="8,-70 8,-282 320,-282 320,-70 8,-70"/>
</g>
<g id="clust2" class="cluster">
<title>cluster_AboutModule_declarations</title>
<polygon fill="none" stroke="#000000" points="16,-154 16,-206 148,-206 148,-154 16,-154"/>
</g>
<g id="clust3" class="cluster">
<title>cluster_AboutModule_AboutComponent_providers</title>
<polygon fill="none" stroke="#000000" points="16,-78 16,-130 164,-130 164,-78 16,-78"/>
</g>
<g id="clust4" class="cluster">
<title>cluster_AboutModule_imports</title>
<polygon fill="none" stroke="#000000" points="156,-154 156,-206 312,-206 312,-154 156,-154"/>
</g>
<g id="clust8" class="cluster">
<title>cluster_AboutRoutingModule</title>
<polygon fill="none" stroke="#000000" stroke-dasharray="1,5" points="328,-70 328,-138 663,-138 663,-70 328,-70"/>
</g>
<g id="clust9" class="cluster">
<title>cluster_AboutRoutingModule_declarations</title>
<polygon fill="none" stroke="#000000" points="336,-78 336,-130 655,-130 655,-78 336,-78"/>
</g>
<g id="clust16" class="cluster">
<title>cluster_AppModule</title>
<polygon fill="none" stroke="#000000" stroke-dasharray="1,5" points="602,-222 602,-420 1300,-420 1300,-222 602,-222"/>
</g>
<g id="clust17" class="cluster">
<title>cluster_AppModule_declarations</title>
<polygon fill="none" stroke="#000000" points="1170,-230 1170,-282 1292,-282 1292,-230 1170,-230"/>
</g>
<g id="clust19" class="cluster">
<title>cluster_AppModule_imports</title>
<polygon fill="none" stroke="#000000" points="906,-230 906,-282 1162,-282 1162,-230 906,-230"/>
</g>
<g id="clust21" class="cluster">
<title>cluster_AppModule_bootstrap</title>
<polygon fill="none" stroke="#000000" points="916,-360 916,-412 1040,-412 1040,-360 916,-360"/>
</g>
<g id="clust22" class="cluster">
<title>cluster_AppModule_providers</title>
<polygon fill="none" stroke="#000000" points="610,-230 610,-282 898,-282 898,-230 610,-230"/>
</g>
<g id="clust29" class="cluster">
<title>cluster_FooterModule</title>
<polygon fill="none" stroke="#000000" stroke-dasharray="1,5" points="1308,-70 1308,-290 1462,-290 1462,-70 1308,-70"/>
</g>
<g id="clust30" class="cluster">
<title>cluster_FooterModule_declarations</title>
<polygon fill="none" stroke="#000000" points="1317,-78 1317,-130 1451,-130 1451,-78 1317,-78"/>
</g>
<g id="clust33" class="cluster">
<title>cluster_FooterModule_exports</title>
<polygon fill="none" stroke="#000000" points="1316,-230 1316,-282 1454,-282 1454,-230 1316,-230"/>
</g>
<g id="clust36" class="cluster">
<title>cluster_HeaderModule</title>
<polygon fill="none" stroke="#000000" stroke-dasharray="1,5" points="1470,-70 1470,-290 1628,-290 1628,-70 1470,-70"/>
</g>
<g id="clust37" class="cluster">
<title>cluster_HeaderModule_declarations</title>
<polygon fill="none" stroke="#000000" points="1479,-78 1479,-130 1617,-130 1617,-78 1479,-78"/>
</g>
<g id="clust40" class="cluster">
<title>cluster_HeaderModule_exports</title>
<polygon fill="none" stroke="#000000" points="1478,-230 1478,-282 1620,-282 1620,-230 1478,-230"/>
</g>
<g id="clust43" class="cluster">
<title>cluster_HomeModule</title>
<polygon fill="none" stroke="#000000" stroke-dasharray="1,5" points="687,-146 687,-214 1241,-214 1241,-146 687,-146"/>
</g>
<g id="clust44" class="cluster">
<title>cluster_HomeModule_declarations</title>
<polygon fill="none" stroke="#000000" points="957,-154 957,-206 1089,-206 1089,-154 957,-154"/>
</g>
<g id="clust46" class="cluster">
<title>cluster_HomeModule_imports</title>
<polygon fill="none" stroke="#000000" points="695,-154 695,-206 949,-206 949,-154 695,-154"/>
</g>
<g id="clust47" class="cluster">
<title>cluster_HomeModule_exports</title>
<polygon fill="none" stroke="#000000" points="1097,-154 1097,-206 1233,-206 1233,-154 1097,-154"/>
</g>
<g id="clust56" class="cluster">
<title>cluster_ListModule</title>
<polygon fill="none" stroke="#000000" stroke-dasharray="1,5" points="328,-222 328,-290 594,-290 594,-222 328,-222"/>
</g>
<g id="clust57" class="cluster">
<title>cluster_ListModule_declarations</title>
<polygon fill="none" stroke="#000000" points="466,-230 466,-282 586,-282 586,-230 466,-230"/>
</g>
<g id="clust60" class="cluster">
<title>cluster_ListModule_exports</title>
<polygon fill="none" stroke="#000000" points="336,-230 336,-282 458,-282 458,-230 336,-230"/>
</g>
<g id="clust63" class="cluster">
<title>cluster_TodoModule</title>
<polygon fill="none" stroke="#000000" stroke-dasharray="1,5" points="1636,-70 1636,-290 2048,-290 2048,-70 1636,-70"/>
</g>
<g id="clust64" class="cluster">
<title>cluster_TodoModule_declarations</title>
<polygon fill="none" stroke="#000000" points="1644,-78 1644,-130 2040,-130 2040,-78 1644,-78"/>
</g>
<g id="clust69" class="cluster">
<title>cluster_TodoModule_exports</title>
<polygon fill="none" stroke="#000000" points="1762,-230 1762,-282 1892,-282 1892,-230 1762,-230"/>
</g>
<!-- AboutComponent -->
<g id="node1" class="node">
<title>AboutComponent</title>
<polygon fill="#ffffb3" stroke="#000000" points="140.3301,-198 23.6699,-198 23.6699,-162 140.3301,-162 140.3301,-198"/>
<text text-anchor="middle" x="82" y="-175.8" font-family="Times,serif" font-size="14.00" fill="#000000">AboutComponent</text>
</g>
<!-- AboutModule -->
<g id="node2" class="node">
<title>AboutModule</title>
<polygon fill="#8dd3c7" stroke="#000000" points="205.0481,-274 202.0481,-278 181.0481,-278 178.0481,-274 110.9519,-274 110.9519,-238 205.0481,-238 205.0481,-274"/>
<text text-anchor="middle" x="158" y="-251.8" font-family="Times,serif" font-size="14.00" fill="#000000">AboutModule</text>
</g>
<!-- AboutComponent&#45;&gt;AboutModule -->
<g id="edge1" class="edge">
<title>AboutComponent&#45;&gt;AboutModule</title>
<path fill="none" stroke="#000000" d="M125.4457,-198.0109C125.4457,-198.0109 125.4457,-227.855 125.4457,-227.855"/>
<polygon fill="#000000" stroke="#000000" points="121.9457,-227.8549 125.4457,-237.855 128.9457,-227.855 121.9457,-227.8549"/>
</g>
<!-- EmptyService -->
<g id="node3" class="node">
<title>EmptyService</title>
<ellipse fill="#fdb462" stroke="#000000" cx="90" cy="-104" rx="65.989" ry="18"/>
<text text-anchor="middle" x="90" y="-99.8" font-family="Times,serif" font-size="14.00" fill="#000000">EmptyService</text>
</g>
<!-- EmptyService&#45;&gt;AboutComponent -->
<g id="edge2" class="edge">
<title>EmptyService&#45;&gt;AboutComponent</title>
<path fill="none" stroke="#000000" d="M82.2104,-122.0109C82.2104,-122.0109 82.2104,-151.855 82.2104,-151.855"/>
<polygon fill="#000000" stroke="#000000" points="78.7105,-151.8549 82.2104,-161.855 85.7105,-151.855 78.7105,-151.8549"/>
</g>
<!-- AboutRoutingModule -->
<g id="node4" class="node">
<title>AboutRoutingModule</title>
<polygon fill="#8dd3c7" stroke="#000000" points="303.6652,-198 300.6652,-202 279.6652,-202 276.6652,-198 164.3348,-198 164.3348,-162 303.6652,-162 303.6652,-198"/>
<text text-anchor="middle" x="234" y="-175.8" font-family="Times,serif" font-size="14.00" fill="#000000">AboutRoutingModule</text>
</g>
<!-- AboutRoutingModule&#45;&gt;AboutModule -->
<g id="edge3" class="edge">
<title>AboutRoutingModule&#45;&gt;AboutModule</title>
<path fill="none" stroke="#000000" d="M184.7206,-198.0109C184.7206,-198.0109 184.7206,-227.855 184.7206,-227.855"/>
<polygon fill="#000000" stroke="#000000" points="181.2206,-227.8549 184.7206,-237.855 188.2206,-227.855 181.2206,-227.8549"/>
</g>
<!-- TodoMVCComponent -->
<g id="node5" class="node">
<title>TodoMVCComponent</title>
<polygon fill="#ffffb3" stroke="#000000" points="647.273,-122 504.727,-122 504.727,-86 647.273,-86 647.273,-122"/>
<text text-anchor="middle" x="576" y="-99.8" font-family="Times,serif" font-size="14.00" fill="#000000">TodoMVCComponent</text>
</g>
<!-- TodoMVCComponent&#45;&gt;AboutRoutingModule -->
<g id="edge4" class="edge">
<title>TodoMVCComponent&#45;&gt;AboutRoutingModule</title>
<path fill="none" stroke="#000000" d="M528.9275,-122.0449C528.9275,-143.6623 528.9275,-177 528.9275,-177 528.9275,-177 313.8937,-177 313.8937,-177"/>
<polygon fill="#000000" stroke="#000000" points="313.8937,-173.5001 303.8937,-177 313.8937,-180.5001 313.8937,-173.5001"/>
</g>
<!-- CompodocComponent -->
<g id="node6" class="node">
<title>CompodocComponent</title>
<polygon fill="#ffffb3" stroke="#000000" points="486.2744,-122 343.7256,-122 343.7256,-86 486.2744,-86 486.2744,-122"/>
<text text-anchor="middle" x="415" y="-99.8" font-family="Times,serif" font-size="14.00" fill="#000000">CompodocComponent</text>
</g>
<!-- CompodocComponent&#45;&gt;AboutRoutingModule -->
<g id="edge5" class="edge">
<title>CompodocComponent&#45;&gt;AboutRoutingModule</title>
<path fill="none" stroke="#000000" d="M379.2315,-122.0348C379.2315,-141.5762 379.2315,-170 379.2315,-170 379.2315,-170 314.0633,-170 314.0633,-170"/>
<polygon fill="#000000" stroke="#000000" points="314.0634,-166.5001 304.0633,-170 314.0633,-173.5001 314.0634,-166.5001"/>
</g>
<!-- AppComponent -->
<g id="node7" class="node">
<title>AppComponent</title>
<polygon fill="#ffffb3" stroke="#000000" points="1283.9399,-274 1178.0601,-274 1178.0601,-238 1283.9399,-238 1283.9399,-274"/>
<text text-anchor="middle" x="1231" y="-251.8" font-family="Times,serif" font-size="14.00" fill="#000000">AppComponent</text>
</g>
<!-- AppModule -->
<g id="node8" class="node">
<title>AppModule</title>
<polygon fill="#8dd3c7" stroke="#000000" points="1019.6571,-339 1016.6571,-343 995.6571,-343 992.6571,-339 936.3429,-339 936.3429,-303 1019.6571,-303 1019.6571,-339"/>
<text text-anchor="middle" x="978" y="-316.8" font-family="Times,serif" font-size="14.00" fill="#000000">AppModule</text>
</g>
<!-- AppComponent&#45;&gt;AppModule -->
<g id="edge6" class="edge">
<title>AppComponent&#45;&gt;AppModule</title>
<path fill="none" stroke="#000000" d="M1231,-274.2843C1231,-295.3211 1231,-327 1231,-327 1231,-327 1029.7778,-327 1029.7778,-327"/>
<polygon fill="#000000" stroke="#000000" points="1029.7778,-323.5001 1019.7778,-327 1029.7778,-330.5001 1029.7778,-323.5001"/>
</g>
<!-- AppComponent  -->
<g id="node11" class="node">
<title>AppComponent </title>
<polygon fill="#80b1d3" stroke="#000000" points="1032.439,-404 923.561,-404 923.561,-368 1032.439,-368 1032.439,-404"/>
<text text-anchor="middle" x="978" y="-381.8" font-family="Times,serif" font-size="14.00" fill="#000000">AppComponent </text>
</g>
<!-- AppModule&#45;&gt;AppComponent  -->
<g id="edge9" class="edge">
<title>AppModule&#45;&gt;AppComponent </title>
<path fill="none" stroke="#000000" stroke-dasharray="1,5" d="M978,-339.1061C978,-339.1061 978,-357.991 978,-357.991"/>
<polygon fill="#000000" stroke="#000000" points="974.5001,-357.9909 978,-367.991 981.5001,-357.991 974.5001,-357.9909"/>
</g>
<!-- HomeModule -->
<g id="node9" class="node">
<title>HomeModule</title>
<polygon fill="#8dd3c7" stroke="#000000" points="1153.7619,-274 1150.7619,-278 1129.7619,-278 1126.7619,-274 1060.2381,-274 1060.2381,-238 1153.7619,-238 1153.7619,-274"/>
<text text-anchor="middle" x="1107" y="-251.8" font-family="Times,serif" font-size="14.00" fill="#000000">HomeModule</text>
</g>
<!-- HomeModule&#45;&gt;AppModule -->
<g id="edge7" class="edge">
<title>HomeModule&#45;&gt;AppModule</title>
<path fill="none" stroke="#000000" d="M1107,-274.0225C1107,-291.3734 1107,-315 1107,-315 1107,-315 1029.8826,-315 1029.8826,-315"/>
<polygon fill="#000000" stroke="#000000" points="1029.8826,-311.5001 1019.8826,-315 1029.8826,-318.5001 1029.8826,-311.5001"/>
</g>
<!-- HomeComponent  -->
<g id="node23" class="node">
<title>HomeComponent </title>
<polygon fill="#fb8072" stroke="#000000" points="1224.5442,-198 1105.4558,-198 1105.4558,-162 1224.5442,-162 1224.5442,-198"/>
<text text-anchor="middle" x="1165" y="-175.8" font-family="Times,serif" font-size="14.00" fill="#000000">HomeComponent </text>
</g>
<!-- HomeModule&#45;&gt;HomeComponent  -->
<g id="edge21" class="edge">
<title>HomeModule&#45;&gt;HomeComponent </title>
<path fill="none" stroke="#000000" stroke-dasharray="5,2" d="M1117.5786,-237.9891C1117.5786,-237.9891 1117.5786,-208.145 1117.5786,-208.145"/>
<polygon fill="#000000" stroke="#000000" points="1121.0787,-208.145 1117.5786,-198.145 1114.0787,-208.1451 1121.0787,-208.145"/>
</g>
<!-- AppRoutingModule -->
<g id="node10" class="node">
<title>AppRoutingModule</title>
<polygon fill="#8dd3c7" stroke="#000000" points="1042.2744,-274 1039.2744,-278 1018.2744,-278 1015.2744,-274 913.7256,-274 913.7256,-238 1042.2744,-238 1042.2744,-274"/>
<text text-anchor="middle" x="978" y="-251.8" font-family="Times,serif" font-size="14.00" fill="#000000">AppRoutingModule</text>
</g>
<!-- AppRoutingModule&#45;&gt;AppModule -->
<g id="edge8" class="edge">
<title>AppRoutingModule&#45;&gt;AppModule</title>
<path fill="none" stroke="#000000" d="M978,-274.1061C978,-274.1061 978,-292.991 978,-292.991"/>
<polygon fill="#000000" stroke="#000000" points="974.5001,-292.9909 978,-302.991 981.5001,-292.991 974.5001,-292.9909"/>
</g>
<!-- TodoStore -->
<g id="node12" class="node">
<title>TodoStore</title>
<ellipse fill="#fdb462" stroke="#000000" cx="838" cy="-256" rx="51.6073" ry="18"/>
<text text-anchor="middle" x="838" y="-251.8" font-family="Times,serif" font-size="14.00" fill="#000000">TodoStore</text>
</g>
<!-- TodoStore&#45;&gt;AppModule -->
<g id="edge10" class="edge">
<title>TodoStore&#45;&gt;AppModule</title>
<path fill="none" stroke="#000000" d="M838,-274.0225C838,-291.3734 838,-315 838,-315 838,-315 925.9954,-315 925.9954,-315"/>
<polygon fill="#000000" stroke="#000000" points="925.9954,-318.5001 935.9954,-315 925.9953,-311.5001 925.9954,-318.5001"/>
</g>
<!-- NoopInterceptor -->
<g id="node13" class="node">
<title>NoopInterceptor</title>
<ellipse fill="#fdb462" stroke="#000000" cx="693" cy="-256" rx="74.7014" ry="18"/>
<text text-anchor="middle" x="693" y="-251.8" font-family="Times,serif" font-size="14.00" fill="#000000">NoopInterceptor</text>
</g>
<!-- NoopInterceptor&#45;&gt;AppModule -->
<g id="edge11" class="edge">
<title>NoopInterceptor&#45;&gt;AppModule</title>
<path fill="none" stroke="#000000" d="M693,-274.2843C693,-295.3211 693,-327 693,-327 693,-327 926.2533,-327 926.2533,-327"/>
<polygon fill="#000000" stroke="#000000" points="926.2534,-330.5001 936.2533,-327 926.2533,-323.5001 926.2534,-330.5001"/>
</g>
<!-- FooterComponent -->
<g id="node14" class="node">
<title>FooterComponent</title>
<polygon fill="#ffffb3" stroke="#000000" points="1442.8809,-122 1325.1191,-122 1325.1191,-86 1442.8809,-86 1442.8809,-122"/>
<text text-anchor="middle" x="1384" y="-99.8" font-family="Times,serif" font-size="14.00" fill="#000000">FooterComponent</text>
</g>
<!-- FooterModule -->
<g id="node15" class="node">
<title>FooterModule</title>
<polygon fill="#8dd3c7" stroke="#000000" points="1432.0983,-198 1429.0983,-202 1408.0983,-202 1405.0983,-198 1335.9017,-198 1335.9017,-162 1432.0983,-162 1432.0983,-198"/>
<text text-anchor="middle" x="1384" y="-175.8" font-family="Times,serif" font-size="14.00" fill="#000000">FooterModule</text>
</g>
<!-- FooterComponent&#45;&gt;FooterModule -->
<g id="edge12" class="edge">
<title>FooterComponent&#45;&gt;FooterModule</title>
<path fill="none" stroke="#000000" d="M1384,-122.0109C1384,-122.0109 1384,-151.855 1384,-151.855"/>
<polygon fill="#000000" stroke="#000000" points="1380.5001,-151.8549 1384,-161.855 1387.5001,-151.855 1380.5001,-151.8549"/>
</g>
<!-- FooterModule&#45;&gt;HomeModule -->
<g id="edge19" class="edge">
<title>FooterModule&#45;&gt;HomeModule</title>
<path fill="none" stroke="#000000" d="M1367.9836,-198.0579C1367.9836,-202.4945 1367.9836,-206 1367.9836,-206 1367.9836,-206 1129.6793,-206 1129.6793,-206 1129.6793,-206 1129.6793,-227.9489 1129.6793,-227.9489"/>
<polygon fill="#000000" stroke="#000000" points="1126.1794,-227.9488 1129.6793,-237.9489 1133.1794,-227.9489 1126.1794,-227.9488"/>
</g>
<!-- FooterComponent  -->
<g id="node16" class="node">
<title>FooterComponent </title>
<polygon fill="#fb8072" stroke="#000000" points="1445.8814,-274 1324.1186,-274 1324.1186,-238 1445.8814,-238 1445.8814,-274"/>
<text text-anchor="middle" x="1385" y="-251.8" font-family="Times,serif" font-size="14.00" fill="#000000">FooterComponent </text>
</g>
<!-- FooterModule&#45;&gt;FooterComponent  -->
<g id="edge13" class="edge">
<title>FooterModule&#45;&gt;FooterComponent </title>
<path fill="none" stroke="#000000" stroke-dasharray="5,2" d="M1400.0164,-198.0109C1400.0164,-198.0109 1400.0164,-227.855 1400.0164,-227.855"/>
<polygon fill="#000000" stroke="#000000" points="1396.5165,-227.8549 1400.0164,-237.855 1403.5165,-227.855 1396.5165,-227.8549"/>
</g>
<!-- HeaderComponent -->
<g id="node17" class="node">
<title>HeaderComponent</title>
<polygon fill="#ffffb3" stroke="#000000" points="1608.7437,-122 1487.2563,-122 1487.2563,-86 1608.7437,-86 1608.7437,-122"/>
<text text-anchor="middle" x="1548" y="-99.8" font-family="Times,serif" font-size="14.00" fill="#000000">HeaderComponent</text>
</g>
<!-- HeaderModule -->
<g id="node18" class="node">
<title>HeaderModule</title>
<polygon fill="#8dd3c7" stroke="#000000" points="1597.9608,-198 1594.9608,-202 1573.9608,-202 1570.9608,-198 1498.0392,-198 1498.0392,-162 1597.9608,-162 1597.9608,-198"/>
<text text-anchor="middle" x="1548" y="-175.8" font-family="Times,serif" font-size="14.00" fill="#000000">HeaderModule</text>
</g>
<!-- HeaderComponent&#45;&gt;HeaderModule -->
<g id="edge14" class="edge">
<title>HeaderComponent&#45;&gt;HeaderModule</title>
<path fill="none" stroke="#000000" d="M1548,-122.0109C1548,-122.0109 1548,-151.855 1548,-151.855"/>
<polygon fill="#000000" stroke="#000000" points="1544.5001,-151.8549 1548,-161.855 1551.5001,-151.855 1544.5001,-151.8549"/>
</g>
<!-- HeaderModule&#45;&gt;HomeModule -->
<g id="edge17" class="edge">
<title>HeaderModule&#45;&gt;HomeModule</title>
<path fill="none" stroke="#000000" d="M1531.3399,-198.1944C1531.3399,-206.2782 1531.3399,-214 1531.3399,-214 1531.3399,-214 1141.7801,-214 1141.7801,-214 1141.7801,-214 1141.7801,-227.9445 1141.7801,-227.9445"/>
<polygon fill="#000000" stroke="#000000" points="1138.2802,-227.9444 1141.7801,-237.9445 1145.2802,-227.9445 1138.2802,-227.9444"/>
</g>
<!-- HeaderComponent  -->
<g id="node19" class="node">
<title>HeaderComponent </title>
<polygon fill="#fb8072" stroke="#000000" points="1611.7436,-274 1486.2564,-274 1486.2564,-238 1611.7436,-238 1611.7436,-274"/>
<text text-anchor="middle" x="1549" y="-251.8" font-family="Times,serif" font-size="14.00" fill="#000000">HeaderComponent </text>
</g>
<!-- HeaderModule&#45;&gt;HeaderComponent  -->
<g id="edge15" class="edge">
<title>HeaderModule&#45;&gt;HeaderComponent </title>
<path fill="none" stroke="#000000" stroke-dasharray="5,2" d="M1564.6601,-198.0109C1564.6601,-198.0109 1564.6601,-227.855 1564.6601,-227.855"/>
<polygon fill="#000000" stroke="#000000" points="1561.1602,-227.8549 1564.6601,-237.855 1568.1602,-227.855 1561.1602,-227.8549"/>
</g>
<!-- HomeComponent -->
<g id="node20" class="node">
<title>HomeComponent</title>
<polygon fill="#ffffb3" stroke="#000000" points="1080.5451,-198 965.4549,-198 965.4549,-162 1080.5451,-162 1080.5451,-198"/>
<text text-anchor="middle" x="1023" y="-175.8" font-family="Times,serif" font-size="14.00" fill="#000000">HomeComponent</text>
</g>
<!-- HomeComponent&#45;&gt;HomeModule -->
<g id="edge16" class="edge">
<title>HomeComponent&#45;&gt;HomeModule</title>
<path fill="none" stroke="#000000" d="M1075.6089,-198.0109C1075.6089,-198.0109 1075.6089,-227.855 1075.6089,-227.855"/>
<polygon fill="#000000" stroke="#000000" points="1072.109,-227.8549 1075.6089,-237.855 1079.109,-227.855 1072.109,-227.8549"/>
</g>
<!-- ListModule -->
<g id="node21" class="node">
<title>ListModule</title>
<polygon fill="#8dd3c7" stroke="#000000" points="784.8289,-198 781.8289,-202 760.8289,-202 757.8289,-198 703.1711,-198 703.1711,-162 784.8289,-162 784.8289,-198"/>
<text text-anchor="middle" x="744" y="-175.8" font-family="Times,serif" font-size="14.00" fill="#000000">ListModule</text>
</g>
<!-- ListModule&#45;&gt;HomeModule -->
<g id="edge18" class="edge">
<title>ListModule&#45;&gt;HomeModule</title>
<path fill="none" stroke="#000000" d="M776.2573,-198.0511C776.2573,-212.373 776.2573,-230 776.2573,-230 776.2573,-230 1065.2824,-230 1065.2824,-230 1065.2824,-230 1065.2824,-230.7942 1065.2824,-230.7942"/>
<polygon fill="#000000" stroke="#000000" points="1061.7826,-227.9421 1065.2824,-237.9421 1068.7826,-227.9422 1061.7826,-227.9421"/>
</g>
<!-- ListComponent  -->
<g id="node25" class="node">
<title>ListComponent </title>
<polygon fill="#fb8072" stroke="#000000" points="450.1115,-274 343.8885,-274 343.8885,-238 450.1115,-238 450.1115,-274"/>
<text text-anchor="middle" x="397" y="-251.8" font-family="Times,serif" font-size="14.00" fill="#000000">ListComponent </text>
</g>
<!-- ListModule&#45;&gt;ListComponent  -->
<g id="edge23" class="edge">
<title>ListModule&#45;&gt;ListComponent </title>
<path fill="none" stroke="#000000" stroke-dasharray="5,2" d="M703.2995,-184C615.2134,-184 414.7685,-184 414.7685,-184 414.7685,-184 414.7685,-227.8314 414.7685,-227.8314"/>
<polygon fill="#000000" stroke="#000000" points="411.2686,-227.8313 414.7685,-237.8314 418.2686,-227.8314 411.2686,-227.8313"/>
</g>
<!-- HomeRoutingModule -->
<g id="node22" class="node">
<title>HomeRoutingModule</title>
<polygon fill="#8dd3c7" stroke="#000000" points="941.3795,-198 938.3795,-202 917.3795,-202 914.3795,-198 802.6205,-198 802.6205,-162 941.3795,-162 941.3795,-198"/>
<text text-anchor="middle" x="872" y="-175.8" font-family="Times,serif" font-size="14.00" fill="#000000">HomeRoutingModule</text>
</g>
<!-- HomeRoutingModule&#45;&gt;HomeModule -->
<g id="edge20" class="edge">
<title>HomeRoutingModule&#45;&gt;HomeModule</title>
<path fill="none" stroke="#000000" d="M927.5263,-198.0555C927.5263,-209.439 927.5263,-222 927.5263,-222 927.5263,-222 1070.4457,-222 1070.4457,-222 1070.4457,-222 1070.4457,-227.8056 1070.4457,-227.8056"/>
<polygon fill="#000000" stroke="#000000" points="1066.9457,-227.8055 1070.4457,-237.8056 1073.9457,-227.8056 1066.9457,-227.8055"/>
</g>
<!-- ListComponent -->
<g id="node24" class="node">
<title>ListComponent</title>
<polygon fill="#ffffb3" stroke="#000000" points="577.6109,-274 474.3891,-274 474.3891,-238 577.6109,-238 577.6109,-274"/>
<text text-anchor="middle" x="526" y="-251.8" font-family="Times,serif" font-size="14.00" fill="#000000">ListComponent</text>
</g>
<!-- ListComponent&#45;&gt;ListModule -->
<g id="edge22" class="edge">
<title>ListComponent&#45;&gt;ListModule</title>
<path fill="none" stroke="#000000" d="M553.2415,-237.8939C553.2415,-218.6609 553.2415,-191 553.2415,-191 553.2415,-191 693.0775,-191 693.0775,-191"/>
<polygon fill="#000000" stroke="#000000" points="693.0775,-194.5001 703.0775,-191 693.0775,-187.5001 693.0775,-194.5001"/>
</g>
<!-- TodoComponent -->
<g id="node26" class="node">
<title>TodoComponent</title>
<polygon fill="#ffffb3" stroke="#000000" points="1882.3851,-122 1771.6149,-122 1771.6149,-86 1882.3851,-86 1882.3851,-122"/>
<text text-anchor="middle" x="1827" y="-99.8" font-family="Times,serif" font-size="14.00" fill="#000000">TodoComponent</text>
</g>
<!-- TodoModule -->
<g id="node29" class="node">
<title>TodoModule</title>
<polygon fill="#8dd3c7" stroke="#000000" points="1871.6025,-198 1868.6025,-202 1847.6025,-202 1844.6025,-198 1782.3975,-198 1782.3975,-162 1871.6025,-162 1871.6025,-198"/>
<text text-anchor="middle" x="1827" y="-175.8" font-family="Times,serif" font-size="14.00" fill="#000000">TodoModule</text>
</g>
<!-- TodoComponent&#45;&gt;TodoModule -->
<g id="edge24" class="edge">
<title>TodoComponent&#45;&gt;TodoModule</title>
<path fill="none" stroke="#000000" d="M1827,-122.0109C1827,-122.0109 1827,-151.855 1827,-151.855"/>
<polygon fill="#000000" stroke="#000000" points="1823.5001,-151.8549 1827,-161.855 1830.5001,-151.855 1823.5001,-151.8549"/>
</g>
<!-- FirstUpperPipe -->
<g id="node27" class="node">
<title>FirstUpperPipe</title>
<polygon fill="#ffffb3" stroke="#000000" points="1753.5396,-122 1652.4604,-122 1652.4604,-86 1753.5396,-86 1753.5396,-122"/>
<text text-anchor="middle" x="1703" y="-99.8" font-family="Times,serif" font-size="14.00" fill="#000000">FirstUpperPipe</text>
</g>
<!-- FirstUpperPipe&#45;&gt;TodoModule -->
<g id="edge25" class="edge">
<title>FirstUpperPipe&#45;&gt;TodoModule</title>
<path fill="none" stroke="#000000" d="M1703,-122.0109C1703,-144.4852 1703,-180 1703,-180 1703,-180 1772.2332,-180 1772.2332,-180"/>
<polygon fill="#000000" stroke="#000000" points="1772.2332,-183.5001 1782.2332,-180 1772.2331,-176.5001 1772.2332,-183.5001"/>
</g>
<!-- DoNothingDirective -->
<g id="node28" class="node">
<title>DoNothingDirective</title>
<polygon fill="#ffffb3" stroke="#000000" points="2031.5772,-122 1900.4228,-122 1900.4228,-86 2031.5772,-86 2031.5772,-122"/>
<text text-anchor="middle" x="1966" y="-99.8" font-family="Times,serif" font-size="14.00" fill="#000000">DoNothingDirective</text>
</g>
<!-- DoNothingDirective&#45;&gt;TodoModule -->
<g id="edge26" class="edge">
<title>DoNothingDirective&#45;&gt;TodoModule</title>
<path fill="none" stroke="#000000" d="M1966,-122.0109C1966,-144.4852 1966,-180 1966,-180 1966,-180 1881.7456,-180 1881.7456,-180"/>
<polygon fill="#000000" stroke="#000000" points="1881.7456,-176.5001 1871.7456,-180 1881.7456,-183.5001 1881.7456,-176.5001"/>
</g>
<!-- TodoComponent  -->
<g id="node30" class="node">
<title>TodoComponent </title>
<polygon fill="#fb8072" stroke="#000000" points="1884.3857,-274 1769.6143,-274 1769.6143,-238 1884.3857,-238 1884.3857,-274"/>
<text text-anchor="middle" x="1827" y="-251.8" font-family="Times,serif" font-size="14.00" fill="#000000">TodoComponent </text>
</g>
<!-- TodoModule&#45;&gt;TodoComponent  -->
<g id="edge27" class="edge">
<title>TodoModule&#45;&gt;TodoComponent </title>
<path fill="none" stroke="#000000" stroke-dasharray="5,2" d="M1827,-198.0109C1827,-198.0109 1827,-227.855 1827,-227.855"/>
<polygon fill="#000000" stroke="#000000" points="1823.5001,-227.8549 1827,-237.855 1830.5001,-227.855 1823.5001,-227.8549"/>
</g>
</g>
</svg>
